<svg xmlns="http://www.w3.org/2000/svg" viewBox="0 0 449.9 275.73"><defs><style>.cls-1{fill:#231f20;}</style></defs><title>Asset 4</title><g id="Layer_2" data-name="Layer 2"><g id="Layer_1-2" data-name="Layer 1"><path class="cls-1" d="M68.17,98.91a37.17,37.17,0,0,1,14.48,14.55,43.94,43.94,0,0,1,5.25,21.83,43.93,43.93,0,0,1-5.25,21.82,37.17,37.17,0,0,1-14.48,14.55,41.13,41.13,0,0,1-20.47,5.17q-15.45,0-24.3-9.75V268l415.8-26-1-242h11.7V275.73H0V94.93H22.35v9.3Q31,93.73,47.7,93.73A41.12,41.12,0,0,1,68.17,98.91Zm-9.75,52.65q5.77-6.07,5.78-16.27T58.42,119a19.49,19.49,0,0,0-14.77-6.08A19.49,19.49,0,0,0,28.88,119q-5.78,6.07-5.77,16.28t5.77,16.27a19.49,19.49,0,0,0,14.78,6.08A19.49,19.49,0,0,0,58.42,151.56Z"/><path class="cls-1" d="M137.17,96.73a42,42,0,0,1,16.43-3v21.6q-3.9-.3-5.25-.3-10.05,0-15.75,5.63t-5.7,16.88v38.1H103.5V94.93h22.35v10.65A26,26,0,0,1,137.17,96.73Z"/><path class="cls-1" d="M245.4,141.88H184.35a19,19,0,0,0,7.8,11.85q6.15,4.35,15.3,4.35a31,31,0,0,0,11.17-1.87,27.09,27.09,0,0,0,9.08-5.92l12.45,13.5q-11.4,13-33.3,13a52.66,52.66,0,0,1-24.15-5.33,39,39,0,0,1-16.2-14.78,40.69,40.69,0,0,1-5.7-21.45,41.25,41.25,0,0,1,5.63-21.37,39.41,39.41,0,0,1,15.45-14.85,47.83,47.83,0,0,1,43.42-.22,37.25,37.25,0,0,1,15.08,14.63,43.62,43.62,0,0,1,5.47,22.13Q245.85,136,245.4,141.88Zm-54.75-26a19.16,19.16,0,0,0-6.6,12.3H223.8A19.36,19.36,0,0,0,217.2,116a19.74,19.74,0,0,0-13.2-4.58A20.15,20.15,0,0,0,190.65,115.93Z"/><path class="cls-1" d="M269,174.36q-9.6-2.47-15.3-6.22l7.8-16.8a49,49,0,0,0,13,5.63,54.69,54.69,0,0,0,15,2.17q14.85,0,14.85-7.35,0-3.45-4-5a60.09,60.09,0,0,0-12.45-2.55,119.79,119.79,0,0,1-16.35-3.45,25.36,25.36,0,0,1-11.17-6.9q-4.72-4.95-4.72-14.1A22.08,22.08,0,0,1,260,106.26q4.42-5.92,12.9-9.22a55.1,55.1,0,0,1,20-3.3,78.66,78.66,0,0,1,17,1.88,47.68,47.68,0,0,1,14,5.18l-7.8,16.65a46.59,46.59,0,0,0-23.25-6q-7.5,0-11.25,2.1t-3.75,5.4q0,3.75,4,5.25A71.62,71.62,0,0,0,294.9,127a138.65,138.65,0,0,1,16.2,3.52,24.36,24.36,0,0,1,11,6.83q4.65,4.95,4.65,13.8a21.31,21.31,0,0,1-4.5,13.35q-4.5,5.85-13.12,9.07a58.5,58.5,0,0,1-20.47,3.23A78.36,78.36,0,0,1,269,174.36Z"/><path class="cls-1" d="M348.6,174.36q-9.6-2.47-15.3-6.22l7.8-16.8a49,49,0,0,0,13,5.63,54.69,54.69,0,0,0,15,2.17q14.85,0,14.85-7.35,0-3.45-4-5a60.09,60.09,0,0,0-12.45-2.55,119.79,119.79,0,0,1-16.35-3.45,25.36,25.36,0,0,1-11.17-6.9q-4.72-4.95-4.72-14.1a22.08,22.08,0,0,1,4.42-13.58q4.42-5.92,12.9-9.22a55.1,55.1,0,0,1,20-3.3,78.66,78.66,0,0,1,17,1.88,47.68,47.68,0,0,1,14,5.18l-7.8,16.65a46.59,46.59,0,0,0-23.25-6q-7.5,0-11.25,2.1t-3.75,5.4q0,3.75,4,5.25a71.62,71.62,0,0,0,12.9,2.85,138.65,138.65,0,0,1,16.2,3.52,24.36,24.36,0,0,1,11,6.83q4.65,4.95,4.65,13.8a21.31,21.31,0,0,1-4.5,13.35q-4.5,5.85-13.12,9.07a58.5,58.5,0,0,1-20.47,3.23A78.36,78.36,0,0,1,348.6,174.36Z"/></g></g></svg>